<?xml version="1.0" encoding="utf-8"?>
<!-- Generator: Adobe Illustrator 21.0.0, SVG Export Plug-In . SVG Version: 6.00 Build 0)  -->
<svg version="1.1" id="Camada_1" xmlns="http://www.w3.org/2000/svg" xmlns:xlink="http://www.w3.org/1999/xlink" x="0px" y="0px"
	 viewBox="0 0 500 500" style="enable-background:new 0 0 500 500;" xml:space="preserve">
<style type="text/css">
	.st0{fill:#FFFFFF;}
</style>
<g id="Camada_x0020_1_1_">
	<path class="st0" d="M190.4,94.5l8,41l-42.9-8.3C164.3,114.1,176.2,102.8,190.4,94.5z M309.5,94.5L309.5,94.5
		c14.3,8.3,26.2,19.6,35.2,32.8l-42.9,8.3L309.5,94.5z M337.6,231.2L337.6,231.2v-25H162.2v25c0,28.3,10,53.1,24.8,71.7
		c0.2,0.2,0.5,0.3,0.6,0.6c2.2,2.7,4.5,5.2,6.7,7.8h0.2c1.4,1.6,3,3,4.6,4.5c15.3,13.8,33.4,21.9,50.9,21.9
		c17.3,0,35.5-8.1,50.9-21.9c1.6-1.4,3.2-2.9,4.6-4.5l0,0c2.4-2.5,4.6-5.1,6.7-7.8c0.2-0.3,0.5-0.5,0.8-0.6
		C327.6,284.3,337.6,259.5,337.6,231.2z M223.6,388L223.6,388l17-38.3l0,0c-21.8-2.7-41-14.3-56.1-30.7h-0.2l-2.7,11.1L223.6,388z
		 M273.7,425.4L273.7,425.4l-2.2-10.8l-1.6-8h-39.8l-3.8,18.9L273.7,425.4z M318.4,330.1L318.4,330.1l-2.9-11.1l0,0
		c-15.1,16.4-34.4,28-56.1,30.7l0,0l17,38.3L318.4,330.1z M431.6,437.9L431.6,437.9H278.9h-0.3h-57.6h-2.4H68.4
		c-3.5,0-6.4-2.7-6.4-6.2v-26.9c0-12.9,7.2-24.7,18.6-30.9c37.5-19.7,66.3-30.7,91.9-35l-2.9-3.8c-1.1-1.6-1.4-3.5-1-5.2l5.7-23.2
		c-15.4-22.1-24.8-49.5-24.8-75.5v-25h-6.2h-12.6c-3.3,0-6.2-2.9-6.2-6.4c0-3.3,2.9-6.2,6.2-6.2h6.4v-6.4c0-17.3,4-33.9,11.5-48.4
		l56.3,10.7c0.3,0.2,0.6,0.2,1.1,0.2c1.7,0,3.2-0.6,4.5-1.7c1.4-1.6,2.1-3.7,1.7-5.7L202,88.3c5.4-2.4,10.8-4.5,16.7-6V81
		c0-10.5,8.4-18.9,18.9-18.9h24.8c10.3,0,18.9,8.4,18.9,18.9v1.3c5.7,1.6,11.3,3.7,16.5,6l-10.2,53.9c-0.5,2.1,0.3,4.1,1.7,5.7
		c1.1,1.1,2.7,1.7,4.5,1.7c0.3,0,0.8,0,1.1-0.2l56.3-10.7c7.3,14.5,11.5,31,11.5,48.4v6.4h6.2c3.5,0,6.4,2.9,6.4,6.2
		c0,3.5-2.9,6.4-6.4,6.4h-12.6h-6.2v25c0,26.1-9.2,53.4-24.8,75.5l5.9,23.2c0.3,1.7,0,3.7-1.1,5.2l-2.7,3.8
		c25.4,4.3,54.2,15.3,91.8,35c11.6,6.2,18.8,18,18.8,30.9v26.9C438,435.2,435.1,437.9,431.6,437.9z"/>
</g>
</svg>
