<?xml version="1.0" encoding="utf-8"?>
<!-- Generator: Adobe Illustrator 21.0.0, SVG Export Plug-In . SVG Version: 6.00 Build 0)  -->
<svg version="1.1" id="Camada_1" xmlns="http://www.w3.org/2000/svg" xmlns:xlink="http://www.w3.org/1999/xlink" x="0px" y="0px"
	 viewBox="0 0 500 500" style="enable-background:new 0 0 500 500;" xml:space="preserve">
<style type="text/css">
	.st0{fill:#FFFFFF;}
</style>
<g id="Camada_x0020_1">
	<path class="st0" d="M209.2,282.3H266c9,0,16.4-7.3,16.4-16.4v-21.7c0-9-7.3-16.4-16.4-16.4h-56.9c-9,0-16.4,7.3-16.4,16.4V266
		C192.8,275,200.2,282.3,209.2,282.3z"/>
	<path class="st0" d="M310.3,228c-8.9,0-16.2,7.3-16.2,16.4V266c0,9,7.3,16.4,16.2,16.4h57c8.9,0,16.2-7.3,16.2-16.4v-21.7
		c0-9-7.3-16.4-16.2-16.4H310.3z"/>
	<path class="st0" d="M395.3,244.3V266c0,9,7.2,16.4,16.2,16.4h56.9c9,0,16.4-7.3,16.4-16.4v-21.7c0-9-7.3-16.4-16.4-16.4h-56.9
		C402.5,228,395.3,235.3,395.3,244.3z"/>
	<path class="st0" d="M310.3,156h57c8.9,0,16.2-7.3,16.2-16.4V118c0-9-7.3-16.4-16.2-16.4h-57c-8.9,0-16.2,7.3-16.2,16.4v21.7
		C294.1,148.7,301.4,156,310.3,156z"/>
	<path class="st0" d="M259.8,219.2h56.9c9,0,16.2-7.3,16.2-16.4v-21.8c0-8.9-7.2-16.2-16.2-16.2h-56.9c-9,0-16.4,7.3-16.4,16.2v21.8
		C243.5,211.9,250.8,219.2,259.8,219.2z"/>
	<path class="st0" d="M344.7,181.1v21.8c0,9,7.3,16.4,16.2,16.4h57c8.9,0,16.2-7.3,16.2-16.4v-21.8c0-8.9-7.3-16.2-16.2-16.2h-57
		C352,164.9,344.7,172.2,344.7,181.1z"/>
	<path class="st0" d="M400,373c-12.9,0-23.4-10.4-23.4-23.5c0-12.9,10.4-23.4,23.4-23.4s23.4,10.4,23.4,23.4
		C423.4,362.5,412.9,373,400,373z M301.6,373L301.6,373c-12.9,0-23.4-10.4-23.4-23.5c0-12.9,10.4-23.4,23.4-23.4
		c12.9,0,23.4,10.4,23.4,23.4C324.9,362.5,314.5,373,301.6,373z M149.7,167.2L149.7,167.2c-0.2,2.3-0.3,4.8-0.3,7v50.2
		c0,6.2-5.1,11.4-11.4,11.4H59.3c-2.3,0-3.6-0.5-3.9-1.1c-0.6-0.6-0.8-2.8,0.5-6.4c9-26.6,22.9-60.3,26.2-66.7
		c6.1-12.6,13.1-13.6,22.3-13.6h38.2c3.6,0,4.7,1.1,5,1.6C150.3,152.4,150,160.7,149.7,167.2z M97.5,373L97.5,373
		c-12.9,0-23.4-10.4-23.4-23.5c0-12.9,10.4-23.4,23.4-23.4s23.4,10.4,23.4,23.4C120.9,362.5,110.4,373,97.5,373z M480.2,298.4
		L480.2,298.4H184c-3.3,0-5-0.8-5.6-1.4c-0.2-0.2-0.2-0.5-0.3-0.6V135.6l-0.2-0.6c-1.9-7.3-8.4-12.5-15.9-12.5h-8.4
		c-6.1,0-10.9,0-11.1,0H90.8c-15.6,0-22.3,8.9-27.1,18.4C57.2,152.9,0,259.6,0,281.2v39.9c0,14.5,11.7,26.3,26.3,26.3h22.6l-0.2,2
		c0,26.9,22,48.9,48.8,48.9c26.9,0,48.8-22,48.8-48.9v-2h106.5v2c0,26.9,22,48.9,48.8,48.9c26.9,0,48.8-22,48.8-48.9v-2h0.9v2
		c0,26.9,21.8,48.9,48.8,48.9c26.8,0,48.8-22,48.8-48.9l-0.2-2h31.6c11.1,0,19.8-6.7,19.8-15.3v-18.5
		C500,305.1,491.3,298.4,480.2,298.4z"/>
</g>
</svg>
