<?xml version="1.0" encoding="utf-8"?>
<!-- Generator: Adobe Illustrator 21.0.0, SVG Export Plug-In . SVG Version: 6.00 Build 0)  -->
<svg version="1.1" id="Camada_1" xmlns="http://www.w3.org/2000/svg" xmlns:xlink="http://www.w3.org/1999/xlink" x="0px" y="0px"
	 viewBox="0 0 500 500" style="enable-background:new 0 0 500 500;" xml:space="preserve">
<style type="text/css">
	.st0{fill:#FFFFFF;}
</style>
<g id="Camada_x0020_1">
	<path class="st0" d="M114.7,241.1c-2.5-2.1-4.9-4.1-7.7-5.8v-113h101l42.5,118.8H114.7z M496.8,143.7L496.8,143.7l-11.5-5.8
		c-0.5-0.2-1.2-0.5-1.8-0.5l-31.3-3.5l-9.4-73.7c-0.2-2.1-1.6-4-3.8-4.8c-2-0.7-4.3-0.2-5.8,1.5L377,114.2c-1.3,1.3-1.8,3.1-1.5,5.1
		l1.5,7.7l-37.9,10.9l-51.9,113.7h-6.1v-1c0-2,0.2-3.8,0.3-5.6h-6.9l-46.6-136.9c-1.5-5.1-5.9-8.7-11-8.7H95.6
		c-6.3,0-11.4,5.1-11.4,11.5v115.2c-3.8-0.7-7.7-1.2-11.7-1.2c-35.4,0-63.9,28.8-63.9,64.3v22.1c15.3-26.4,44-44.3,76.6-44.3
		c49.1,0,88.8,40,88.8,89.3c0,6.9-0.8,13.7-2.3,20.1h54.9c-0.7-4.8-1.3-9.4-1.3-14.3c0-35.6,23.6-65.4,55.9-75.1v-6.8h24.2
		l54.2-118.3l22.7-6.6l2.8,15.2c0.5,1.6,1.3,3,2.5,3.8c1,0.7,2.1,1,3.1,1c0.5,0,0.8,0,1.2-0.2l103.5-20.8c2.3-0.3,4.3-2.3,4.6-4.8
		C500.3,147,499,144.7,496.8,143.7z M308.6,407.7L308.6,407.7c-23.9,0-43.3-19.4-43.3-43.5s19.4-43.5,43.3-43.5
		c23.9,0,43.3,19.4,43.3,43.5S332.5,407.7,308.6,407.7z M308.6,292L308.6,292c-39.5,0-71.7,32.5-71.7,72.2s32.1,72,71.7,72
		s71.7-32.3,71.7-72S348.2,292,308.6,292z M82.4,416.2L82.4,416.2c-29.8,0-53.9-24.4-53.9-54.2c0-29.8,24.1-54.2,53.9-54.2
		c29.7,0,53.9,24.4,53.9,54.2C136.3,391.9,112,416.2,82.4,416.2z M82.4,279.3L82.4,279.3C36.9,279.3,0,316.4,0,362
		s36.9,82.7,82.4,82.7c45.3,0,82.2-37.1,82.2-82.7S127.7,279.3,82.4,279.3z"/>
</g>
</svg>
