<?xml version="1.0" encoding="utf-8"?>
<!-- Generator: Adobe Illustrator 21.0.0, SVG Export Plug-In . SVG Version: 6.00 Build 0)  -->
<svg version="1.1" id="Capa_1" xmlns="http://www.w3.org/2000/svg" xmlns:xlink="http://www.w3.org/1999/xlink" x="0px" y="0px"
	 viewBox="0 0 512 512" style="enable-background:new 0 0 512 512;" xml:space="preserve">
<style type="text/css">
	.st0{fill:#FFFFFF;}
</style>
<path class="st0" d="M508.5,216.2L423.8,62.4c-7.4-13.5-24.5-18.4-37.9-11l-125.7,69.3l-55.9-97.1c-7.7-13.3-24.8-17.9-38.1-10.3
	L14,101c-6.5,3.7-11.1,9.7-13,16.9c-1.9,7.2-1,14.7,2.8,21.2l87.6,152.1c5.2,9,14.6,14,24.2,14c4.7,0,9.5-1.2,13.9-3.7l12.2-7
	L97,360.5c-4.2,6.2-5.7,13.6-4.3,20.9c1.4,7.3,5.6,13.7,11.8,17.8l145.4,98.3c4.6,3.1,10,4.8,15.6,4.8c9.3,0,18-4.6,23.2-12.3
	L387,344.6c6.3-9.3,6.2-21,0.8-30.1l109.8-60.5C511,246.7,516,229.6,508.5,216.2z M117.9,281.4c-2.3,1.3-5.2,0.5-6.5-1.8L23.8,127.6
	c-1.3-2.3-0.5-5.2,1.8-6.5l152.1-87.6c2.3-1.3,5.2-0.5,6.5,1.8l55.7,96.7l-7.8,4.3c-6.5,3.6-11.3,9.5-13.3,16.7
	c-2.1,7.2-1.2,14.7,2.4,21.2l20,36.3l-1.6,0.9l-5.5-3.7c-4.6-3.1-10-4.8-15.6-4.8c-9.3,0-18,4.6-23.2,12.3l-24.1,35.7L117.9,281.4z
	 M367.8,331.7l-98.3,145.4c-0.9,1.3-2.4,2.1-4,2.1c-1,0-1.9-0.3-2.7-0.8l-145.4-98.3c-1.4-1-1.9-2.3-2-3.1c-0.1-0.7-0.2-2.2,0.7-3.6
	L214.5,228c0.9-1.3,2.4-2.1,4-2.1c1,0,1.9,0.3,2.7,0.8L366.6,325C368.7,326.5,369.3,329.5,367.8,331.7z M486.4,233.8l-117.6,64.8
	L285,242l-43.6-79.1c-0.8-1.5-0.6-2.9-0.4-3.6c0.2-0.7,0.8-2,2.3-2.9L397,71.7c2.3-1.3,5.2-0.4,6.5,1.9l84.7,153.7
	C489.5,229.6,488.7,232.5,486.4,233.8z"/>
</svg>
